<?xml version="1.0" encoding="utf-8"?>
<!-- Generator: Adobe Illustrator 16.0.0, SVG Export Plug-In . SVG Version: 6.00 Build 0)  -->
<!DOCTYPE svg PUBLIC "-//W3C//DTD SVG 1.1//EN" "http://www.w3.org/Graphics/SVG/1.1/DTD/svg11.dtd">
<svg version="1.1" id="Layer_1" xmlns="http://www.w3.org/2000/svg" xmlns:xlink="http://www.w3.org/1999/xlink" x="0px" y="0px"
	 width="16px" height="16px" viewBox="0 0 16 16" enable-background="new 0 0 16 16" xml:space="preserve">
<g>
	<g>
		<circle fill="#376BFF" cx="8" cy="8" r="7.272"/>
		<g>
			<path fill="#FFFFFF" d="M3.31,6.186c0.146-0.001,0.271,0.046,0.377,0.141c0.104,0.095,0.156,0.209,0.158,0.345
				c0,0.133-0.051,0.246-0.154,0.341C3.588,7.106,3.465,7.154,3.32,7.155c-0.147,0-0.274-0.047-0.38-0.144
				C2.836,6.917,2.783,6.801,2.782,6.664c0-0.131,0.051-0.244,0.154-0.338C3.039,6.233,3.163,6.186,3.31,6.186z M2.899,7.414
				l0.833-0.003l0.015,2.979l-0.833,0.004L2.899,7.414z"/>
			<g>
				<path fill="#FFFFFF" d="M13.002,11.286h-2.493l-0.116-0.171c-0.083-0.123-1.62-2.422-2.34-5.083
					c-0.721,2.661-2.259,4.96-2.341,5.083l-0.115,0.171H2.876v-0.713h2.269c0.479-0.759,2.359-3.908,2.477-6.776l0.014-0.344H8.47
					l0.014,0.344c0.117,2.868,1.996,6.018,2.477,6.776h2.042V11.286z"/>
			</g>
			<g>
				<path fill-rule="evenodd" clip-rule="evenodd" fill="#376BFF" d="M5.435,11.305c-0.039-0.144-0.076-0.282-0.115-0.42
					c-0.115-0.418-0.228-0.836-0.353-1.253C4.931,9.506,4.865,9.386,4.801,9.268C4.708,9.096,4.58,8.95,4.373,8.861
					c0.385-0.285,0.765-0.566,1.143-0.847c0.366,0.399,0.514,0.876,0.622,1.381c0.04-0.036,0.065-0.06,0.093-0.084
					c0.628-0.582,1.297-1.125,2.024-1.605c0.757-0.501,1.566-0.918,2.421-1.27c0.705-0.288,1.429-0.533,2.158-0.767
					c0.018-0.007,0.034-0.011,0.059-0.006c-0.028,0.016-0.057,0.03-0.084,0.045c-0.543,0.283-1.091,0.559-1.627,0.853
					C10.351,7.016,9.57,7.535,8.835,8.109C7.858,8.872,6.972,9.715,6.12,10.589C5.892,10.824,5.667,11.062,5.435,11.305z"/>
				<path fill="#FFFFFF" d="M5.378,11.523l-0.052-0.189c-0.017-0.061-0.032-0.12-0.048-0.179c-0.021-0.081-0.044-0.161-0.065-0.241
					c-0.03-0.106-0.061-0.214-0.089-0.321c-0.085-0.305-0.172-0.62-0.264-0.929C4.827,9.554,4.77,9.443,4.703,9.321
					C4.608,9.146,4.49,9.033,4.329,8.964L4.15,8.887l0.156-0.115C4.499,8.63,4.689,8.487,4.88,8.348
					c0.191-0.142,0.38-0.282,0.57-0.422l0.08-0.061l0.068,0.074c0.344,0.374,0.502,0.813,0.605,1.245
					C6.868,8.572,7.52,8.058,8.193,7.612c0.736-0.485,1.557-0.916,2.44-1.278c0.75-0.307,1.515-0.563,2.165-0.771
					c0.021-0.006,0.044-0.012,0.073-0.012c0.015,0,0.029,0.002,0.044,0.004l0.302,0.065l-0.29,0.151
					c-0.023,0.013-0.046,0.025-0.068,0.037c-0.166,0.087-0.337,0.175-0.502,0.26c-0.37,0.19-0.753,0.389-1.122,0.591
					C10.43,7.101,9.645,7.618,8.904,8.197C8.052,8.863,7.192,9.648,6.2,10.667c-0.156,0.161-0.31,0.32-0.471,0.489
					c-0.071,0.075-0.144,0.149-0.214,0.225L5.378,11.523z M4.579,8.848c0.129,0.089,0.235,0.21,0.32,0.367
					C4.971,9.348,5.035,9.469,5.074,9.6c0.093,0.312,0.18,0.629,0.265,0.935c0.029,0.106,0.059,0.214,0.089,0.32
					c0.021,0.076,0.041,0.152,0.063,0.229c0.025-0.027,0.052-0.055,0.078-0.081c0.161-0.17,0.314-0.33,0.473-0.491
					C7.04,9.484,7.906,8.693,8.767,8.021c0.75-0.585,1.545-1.109,2.362-1.558c0.169-0.093,0.341-0.185,0.514-0.274
					c-0.305,0.108-0.616,0.226-0.925,0.353C9.849,6.897,9.04,7.321,8.316,7.799c-0.681,0.45-1.337,0.972-2.011,1.595
					C6.279,9.419,6.251,9.444,6.211,9.479L6.067,9.604L6.028,9.418C5.937,8.987,5.808,8.541,5.5,8.166
					c-0.162,0.12-0.324,0.24-0.487,0.36C4.868,8.633,4.724,8.74,4.579,8.848z"/>
			</g>
		</g>
	</g>
</g>
</svg>
